Coordinates
version=1
nRows=14
nColumns=24
inDegrees=yes

Units are S.I. units (second, meters, Newtons, ...)
Angles are in degrees.

endheader
time	pelvis_tilt	pelvis_list	pelvis_rotation	pelvis_tx	pelvis_ty	pelvis_tz	hip_flexion_r	hip_adduction_r	hip_rotation_r	knee_angle_r	ankle_angle_r	subtalar_angle_r	mtp_angle_r	hip_flexion_l	hip_adduction_l	hip_rotation_l	knee_angle_l	ankle_angle_l	subtalar_angle_l	mtp_angle_l	lumbar_extension	lumbar_bending	lumbar_rotation
      5.45000000	     -7.44201012	     -8.88842164	      2.84146715	     -0.79799063	     -0.01432070	      2.06698816	      2.01442712	     15.01992229	     -7.83020488	     -3.95210125	     11.50708466	     -0.33744246	    -59.89436851	     35.00811700	     -8.03929750	      1.60351718	    -47.75027177	     -4.18775202	     -7.76978920	     36.71344227	      4.06929691	      8.74730060	     -2.43890903
      5.46000000	     -7.57896012	     -8.58777355	      2.83127356	     -0.78722401	     -0.01512428	      2.06737586	      1.22181469	     14.79394338	     -7.88557949	     -3.61028269	     12.01175966	     -0.11561795	    -59.94761928	     35.61837659	     -7.62249062	      0.97033834	    -45.01294689	     -3.93003401	     -7.19285971	     36.10311726	      4.11671889	      8.40262558	     -2.27690698
      5.47000000	     -7.77961497	     -8.33275707	      2.83550608	     -0.77644878	     -0.01616913	      2.06768757	      0.51999545	     14.61103681	     -7.96466815	     -3.29935990	     12.50284436	      0.06646980	    -59.90002265	     36.20926679	     -7.26490537	      0.26839727	    -42.08653449	     -3.80888873	     -6.35383709	     35.98698571	      4.23102571	      8.09900881	     -2.15368546
      5.48000000	     -7.88394568	     -8.05955553	      2.91343231	     -0.76568303	     -0.01720129	      2.06781995	     -0.27483453	     14.40300179	     -8.14841959	     -2.99474192	     13.00346621	      0.30039108	    -59.85233294	     36.57394586	     -6.86152973	     -0.46231213	    -38.95291100	     -3.85262376	     -5.27060733	     35.96290259	      4.23241939	      7.78102551	     -2.09172893
      5.49000000	     -7.98700989	     -7.80179909	      3.03561574	     -0.75487544	     -0.01832940	      2.06781132	     -1.04078583	     14.20417636	     -8.40797322	     -2.74004638	     13.49882091	      0.54365103	    -59.80070968	     36.81612392	     -6.43614368	     -1.19327334	    -35.65386230	     -4.02400250	     -4.00139523	     36.02914658	      4.23578059	      7.47393242	     -2.07357957
      5.50000000	     -8.00210318	     -7.51633346	      3.22373225	     -0.74398315	     -0.01939580	      2.06757955	     -1.88171980	     13.96202294	     -8.76646509	     -2.52833110	     14.00307765	      0.88656730	    -59.78256453	     36.81928834	     -5.91090828	     -1.82396780	    -32.19589681	     -4.38888083	     -2.70441979	     36.21622600	      4.14885192	      7.14486913	     -2.12313418
      5.51000000	     -8.11635137	     -7.28783238	      3.32455151	     -0.73301796	     -0.02063031	      2.06735766	     -2.55041800	     13.75846887	     -9.12667949	     -2.46276756	     14.49296560	      1.30515755	    -59.68822443	     36.83611570	     -5.46553884	     -2.45448753	    -28.74204531	     -4.69696671	     -1.22955983	     36.26464043	      4.16017168	      6.88318827	     -2.09544994
      5.52000000	     -8.13087175	     -7.02327125	      3.46727100	     -0.72194667	     -0.02177503	      2.06696221	     -3.26989350	     13.49264976	     -9.61369707	     -2.52444165	     15.01897564	      1.88856799	    -59.54850728	     36.63951706	     -4.92393723	     -2.91739214	    -25.28760718	     -5.04825993	      0.07206344	     36.17309436	      4.06528826	      6.59150782	     -2.10569853
      5.53000000	     -8.12063467	     -6.74882452	      3.59166667	     -0.71074910	     -0.02291567	      2.06646992	     -3.94574685	     13.18314848	    -10.15879724	     -2.75009312	     15.57677434	      2.61712759	    -59.38256406	     36.34738486	     -4.35138371	     -3.21393428	    -21.94380629	     -5.32037410	      1.16600312	     35.88642830	      3.94292492	      6.29921484	     -2.09875526
      5.54000000	     -8.08239909	     -6.44407443	      3.68068267	     -0.69932548	     -0.02402597	      2.06590316	     -4.59906290	     12.80275888	    -10.74204844	     -3.12640130	     16.16574346	      3.52290603	    -59.18345721	     35.95785516	     -3.74695963	     -3.32193733	    -18.76672188	     -5.42401315	      1.98888868	     35.35717257	      3.80846638	      5.98750818	     -2.04171147
      5.55000000	     -8.03186326	     -6.10705091	      3.72453700	     -0.68770253	     -0.02510423	      2.06528011	     -5.20228451	     12.34413513	    -11.31671063	     -3.67211331	     16.77007717	      4.55473144	    -58.92939617	     35.50673614	     -3.13053942	     -3.28078530	    -15.81514559	     -5.36586451	      2.56286323	     34.54658996	      3.67212793	      5.65023814	     -1.94077834
      5.56000000	     -7.94066245	     -5.74275932	      3.80383515	     -0.67584876	     -0.02612209	      2.06451349	     -5.82485134	     11.83539683	    -11.79112992	     -4.28716331	     17.26852647	      5.46832232	    -58.59324336	     35.00427577	     -2.46235358	     -2.98702359	    -13.25602571	     -4.83487927	      3.07466196	     31.43555164	      3.52177590	      5.28535655	     -1.92192937
      5.57000000	     -7.95417591	     -5.41505190	      3.78144926	     -0.66376707	     -0.02723700	      2.06382830	     -6.24910427	     11.30337827	    -12.34395529	     -5.11830898	     17.77168789	      6.68719751	    -58.04223455	     34.59327637	     -1.92445103	     -2.86220138	    -10.94283577	     -4.55775124	      3.46603674	     30.64800492	      3.50457512	      4.95253069	     -1.81109293
      5.58000000	     -7.91205276	     -5.05803620	      3.71410840	     -0.65154719	     -0.02821858	      2.06316121	     -6.69229121	     10.73168237	    -12.57928747	     -6.04270071	     17.98769500	      7.54171098	    -56.45466495	     34.13901164	     -1.39729276	     -2.66436053	     -9.13663469	     -3.95547646	      3.81287272	     27.65878656	      3.43204781	      4.58920675	     -1.65640624
